<?xml version="1.0" encoding="utf-8"?>
<!-- Generator: Adobe Illustrator 24.1.3, SVG Export Plug-In . SVG Version: 6.00 Build 0)  -->
<svg version="1.1" id="Layer_1" xmlns="http://www.w3.org/2000/svg" xmlns:xlink="http://www.w3.org/1999/xlink" x="0px" y="0px"
	 viewBox="380 460 1160 165" xml:space="preserve">
<style type="text/css">
	.st0{fill:#FFFFFF;}
	.st1{fill:url(#SVGID_1_);}
	.st2{fill:#F20201;}
	.st3{fill:#37383A;}
	.st4{fill:url(#SVGID_2_);}
</style>
<g>
	<g>
		<g>
			<g>
				<g>
					<g>
						<polygon class="st3" points="775.04,470.78 622.41,470.78 597.82,609.23 731.86,609.23 751.53,579.44 639.95,579.44 
							644.89,552.57 730.31,552.66 755.15,526.56 649.87,526.65 654.82,501.7 749.2,501.7 						"/>
						<path class="st3" d="M833.17,504.5c3.32-2.18,8.37-2.74,15.14-2.74l99.6-0.05l29.52-30.98c0,0-111.12-0.05-117.97,0.07
							c-9.39,0.16-18.88-0.08-28.14,1.75c-15.55,3.07-29.75,13.74-35.91,28.56c-2.4,5.81-3.62,12.21-3.62,19.04
							c0,9.5,3.33,16.87,10.17,22.55c6.93,5.75,18.26,9.99,33.72,9.99h78.53c14.01,0,16.97,5.22,16.97,10.7
							c0,6.6-2.96,10.15-5.46,11.98c-3.35,2.49-8.11,4.09-14.97,4.09H802.79l-28.45,29.8c0,0,126.14,0,126.14,0
							c21.16,0,41.97,0.04,56.57-17.84c12.99-15.9,15.74-42.13,0.31-57.4c-7.03-6.95-18.89-6.95-33.75-6.95h-78.3
							c-14.95,0-17.18-7.25-17.18-11.57C828.13,509.96,829.45,506.95,833.17,504.5z"/>
					</g>
				</g>
				<path class="st3" d="M574.79,479.02c-5.82-4.17-13.09-6.29-20.61-7.25c-1.04-0.13-2.08-0.24-3.13-0.32
					c-14.29-1.06-75.9-0.68-75.9-0.68l-22.46,30.99c0,0,5.29,0.01,6.56,0.01h75.5c3.39,0,6.48,0.66,9.18,1.97
					c3.4,1.64,5.27,4.84,5.27,9.01c0,5.63-2.03,9.64-6.04,11.94c-3.39,1.96-6.94,2.13-11.28,2.13h-48.45l-24.81,25.84h66.58
					c13.9,0,15.98,6.54,15.98,10.88c0,4.84-1.37,9.15-4.83,11.84c-3.24,2.53-8.44,4.07-14.78,4.07l-88.49-0.02l-29.22,29.8
					c0,0,44.87-0.01,63.24-0.01c10.63,0,21.27,0,31.9,0c15.47,0,31.5,0.85,46.55-3.43c12.53-3.56,24.46-12.13,30.25-24.01
					c6.47-13.29,3.87-30.91-8.53-39.93c-3.44-2.5-7.34-3.37-11.43-4.28c0,0,6.98-1.97,8.13-2.34c2.84-0.92,6.02-2.31,8.74-4.07
					c10.84-6.99,16.02-21.86,13.49-34.27C584.75,489.77,580.71,483.26,574.79,479.02z"/>
				<linearGradient id="SVGID_1_" gradientUnits="userSpaceOnUse" x1="455.6078" y1="472.8174" x2="411.7652" y2="582.4239">
					<stop  offset="0" style="stop-color:#FF0000"/>
					<stop  offset="1" style="stop-color:#A40D0D"/>
				</linearGradient>
				<polygon class="st1" points="472.79,526.83 391.16,609.07 418.04,552.66 388.17,552.66 417.64,470.78 469.06,470.78 
					427.47,526.9 				"/>
				<path class="st3" d="M1085.02,579.44l46.7,0.02l-35.17-67.68l-86.15,97.46h-43.5l109.52-123.58c3.46-3.86,7.67-7.4,12.53-10.5
					c4.64-2.95,9.98-4.37,16.34-4.37c5.86,0,10.52,1.3,13.83,3.88c3.53,2.76,6.41,6.23,8.58,10.34l63.89,124.24h-133.25
					L1085.02,579.44z"/>
			</g>
		</g>
	</g>
	<g>
		<path class="st2" d="M1218.27,572.35l-1.32,7.72h14.85l-1.78,9.83h-14.85l-1.52,8.45h16.83l-1.78,10.3h-29.83l8.25-46.53h29.77
			l-1.78,10.23H1218.27z"/>
		<path class="st2" d="M1291.39,608.65h-13l-12.54-26l-4.62,26h-13l8.25-46.53h12.94l12.61,26.33l4.62-26.33h12.94L1291.39,608.65z"
			/>
		<path class="st2" d="M1331.32,572.35l-1.32,7.72h14.85l-1.78,9.83h-14.85l-1.52,8.45h16.83l-1.78,10.3h-29.83l8.25-46.53h29.77
			l-1.78,10.23H1331.32z"/>
		<path class="st2" d="M1401.09,565.38c2.55,2.18,3.83,5.07,3.83,8.68c0,1.1-0.09,2.09-0.26,2.97c-0.53,3.17-1.87,5.95-4.03,8.35
			c-2.16,2.4-5.02,4.1-8.58,5.12l7.26,18.15h-14.39l-6.2-17.16h-1.39l-3.04,17.16h-13l8.25-46.53h20.39
			C1394.82,562.12,1398.53,563.21,1401.09,565.38z M1378.91,582.64h6.4c3.43,0,5.46-1.63,6.07-4.88c0.09-0.53,0.13-0.9,0.13-1.12
			c0-1.19-0.39-2.11-1.15-2.77c-0.77-0.66-1.9-0.99-3.4-0.99h-6.4L1378.91,582.64z"/>
		<path class="st2" d="M1425.77,573.04c2.6-3.59,5.85-6.38,9.77-8.38c3.92-2,8.21-3,12.87-3c5.85,0,10.44,1.41,13.76,4.22
			c3.32,2.82,5.03,6.67,5.12,11.55h-13.93c-0.49-1.23-1.32-2.18-2.51-2.84c-1.19-0.66-2.68-0.99-4.49-0.99
			c-3.21,0-5.95,1.06-8.22,3.17c-2.27,2.11-3.71,4.95-4.32,8.51c-0.22,1.32-0.33,2.42-0.33,3.3c0,2.95,0.83,5.18,2.51,6.7
			c1.67,1.52,4.14,2.28,7.39,2.28c4.53,0,8.14-2.05,10.82-6.14h-13l1.65-9.31h24.16l-2.24,12.54c-2.29,3.92-5.57,7.28-9.83,10.1
			c-4.27,2.82-9.2,4.22-14.78,4.22c-4.14,0-7.7-0.78-10.69-2.34c-2.99-1.56-5.28-3.75-6.86-6.57c-1.58-2.82-2.38-6.07-2.38-9.77
			c0-1.76,0.15-3.43,0.46-5.02C1421.48,580.71,1423.17,576.63,1425.77,573.04z"/>
		<path class="st2" d="M1531.83,562.12l-21.98,31.75l-2.64,14.78h-12.94l2.57-14.78l-10.76-31.75h14.78l5.02,18.02l11.35-18.02
			H1531.83z"/>
	</g>
</g>
</svg>
